<?xml version="1.0" encoding="UTF-8" standalone="no"?>
<!DOCTYPE svg PUBLIC "-//W3C//DTD SVG 1.1//EN"
 "http://www.w3.org/Graphics/SVG/1.1/DTD/svg11.dtd">
<!-- Generated by graphviz version 2.47.0 (20210316.0004)
 -->
<!-- Title: dependencies Pages: 1 -->
<svg width="504pt" height="287pt"
 viewBox="0.00 0.00 504.00 287.00" xmlns="http://www.w3.org/2000/svg" xmlns:xlink="http://www.w3.org/1999/xlink">
<g id="graph0" class="graph" transform="scale(1 1) rotate(0) translate(4 283)">
<title>dependencies</title>
<polygon fill="white" stroke="transparent" points="-4,4 -4,-283 500,-283 500,4 -4,4"/>
<text text-anchor="start" x="227.01" y="-42.4" font-family="Times-12" font-weight="bold" font-size="14.00">Legend</text>
<polygon fill="#ffffb3" stroke="transparent" points="14,-10 14,-30 34,-30 34,-10 14,-10"/>
<text text-anchor="start" x="37.63" y="-15.4" font-family="Times-12" font-size="14.00"> &#160;Declarations</text>
<polygon fill="#8dd3c7" stroke="transparent" points="127,-10 127,-30 147,-30 147,-10 127,-10"/>
<text text-anchor="start" x="150.73" y="-15.4" font-family="Times-12" font-size="14.00"> &#160;Module</text>
<polygon fill="#80b1d3" stroke="transparent" points="213,-10 213,-30 233,-30 233,-10 213,-10"/>
<text text-anchor="start" x="236.78" y="-15.4" font-family="Times-12" font-size="14.00"> &#160;Bootstrap</text>
<polygon fill="#fdb462" stroke="transparent" points="310,-10 310,-30 330,-30 330,-10 310,-10"/>
<text text-anchor="start" x="333.67" y="-15.4" font-family="Times-12" font-size="14.00"> &#160;Providers</text>
<polygon fill="#fb8072" stroke="transparent" points="406,-10 406,-30 426,-30 426,-10 406,-10"/>
<text text-anchor="start" x="429.73" y="-15.4" font-family="Times-12" font-size="14.00"> &#160;Exports</text>
<g id="clust1" class="cluster">
<title>cluster_AppModule</title>
<polygon fill="none" stroke="black" stroke-dasharray="1,5" points="134.5,-146 134.5,-271 375.5,-271 375.5,-146 134.5,-146"/>
</g>
<g id="clust3" class="cluster">
<title>cluster_AppModule_imports</title>
<polygon fill="none" stroke="black" points="142.5,-154 142.5,-206 367.5,-206 367.5,-154 142.5,-154"/>
</g>
<g id="clust13" class="cluster">
<title>cluster_GestionModule</title>
<polygon fill="none" stroke="black" stroke-dasharray="1,5" points="120.5,-70 120.5,-138 284.5,-138 284.5,-70 120.5,-70"/>
</g>
<g id="clust18" class="cluster">
<title>cluster_GestionModule_providers</title>
<polygon fill="none" stroke="black" points="128.5,-78 128.5,-130 276.5,-130 276.5,-78 128.5,-78"/>
</g>
<!-- AuthModule -->
<g id="node1" class="node">
<title>AuthModule</title>
<polygon fill="#8dd3c7" stroke="black" points="359.05,-198 356.05,-202 335.05,-202 332.05,-198 271.95,-198 271.95,-162 359.05,-162 359.05,-198"/>
<text text-anchor="middle" x="315.5" y="-175.8" font-family="Times,serif" font-size="14.00">AuthModule</text>
</g>
<!-- AppModule -->
<g id="node3" class="node">
<title>AppModule</title>
<polygon fill="#8dd3c7" stroke="black" points="300.16,-263 297.16,-267 276.16,-267 273.16,-263 216.84,-263 216.84,-227 300.16,-227 300.16,-263"/>
<text text-anchor="middle" x="258.5" y="-240.8" font-family="Times,serif" font-size="14.00">AppModule</text>
</g>
<!-- AuthModule&#45;&gt;AppModule -->
<g id="edge1" class="edge">
<title>AuthModule&#45;&gt;AppModule</title>
<path fill="none" stroke="black" d="M286.03,-198.11C286.03,-198.11 286.03,-216.99 286.03,-216.99"/>
<polygon fill="black" stroke="black" points="282.53,-216.99 286.03,-226.99 289.53,-216.99 282.53,-216.99"/>
</g>
<!-- GestionModule -->
<g id="node2" class="node">
<title>GestionModule</title>
<polygon fill="#8dd3c7" stroke="black" points="254.1,-198 251.1,-202 230.1,-202 227.1,-198 150.9,-198 150.9,-162 254.1,-162 254.1,-198"/>
<text text-anchor="middle" x="202.5" y="-175.8" font-family="Times,serif" font-size="14.00">GestionModule</text>
</g>
<!-- GestionModule&#45;&gt;AppModule -->
<g id="edge2" class="edge">
<title>GestionModule&#45;&gt;AppModule</title>
<path fill="none" stroke="black" d="M235.36,-198.11C235.36,-198.11 235.36,-216.99 235.36,-216.99"/>
<polygon fill="black" stroke="black" points="231.86,-216.99 235.36,-226.99 238.86,-216.99 231.86,-216.99"/>
</g>
<!-- TareasService -->
<g id="node4" class="node">
<title>TareasService</title>
<ellipse fill="#fdb462" stroke="black" cx="202.5" cy="-104" rx="65.94" ry="18"/>
<text text-anchor="middle" x="202.5" y="-99.8" font-family="Times,serif" font-size="14.00">TareasService</text>
</g>
<!-- TareasService&#45;&gt;GestionModule -->
<g id="edge3" class="edge">
<title>TareasService&#45;&gt;GestionModule</title>
<path fill="none" stroke="black" d="M202.5,-122.01C202.5,-122.01 202.5,-151.85 202.5,-151.85"/>
<polygon fill="black" stroke="black" points="199,-151.85 202.5,-161.85 206,-151.85 199,-151.85"/>
</g>
</g>
</svg>
