<svg width="48" height="33" viewBox="0 0 48 33" fill="none" xmlns="http://www.w3.org/2000/svg">
<path d="M6.1425 4.34103H8.70709V8.95729H6.78052V8.41935C6.19671 8.91142 5.41274 9.15745 4.4286 9.15745C3.60293 9.15745 2.85232 8.98231 2.17677 8.63203C1.50956 8.28174 0.979964 7.77299 0.587979 7.10578C0.195993 6.43023 0 5.62541 0 4.69132C0 3.7739 0.208503 2.96074 0.625509 2.25183C1.05086 1.53458 1.63883 0.979964 2.38944 0.587978C3.14006 0.195993 3.99492 0 4.95403 0C5.81306 0 6.58036 0.145952 7.25591 0.437856C7.9398 0.72142 8.50692 1.13843 8.95729 1.68887L7.06825 3.35273C6.5178 2.71054 5.8631 2.38944 5.10415 2.38944C4.44528 2.38944 3.92403 2.58961 3.54038 2.98993C3.16508 3.39026 2.97742 3.94905 2.97742 4.6663C2.97742 5.38355 3.1484 5.92149 3.49034 6.28011C3.84063 6.63874 4.29099 6.81805 4.84144 6.81805C5.35019 6.81805 5.78387 6.69295 6.1425 6.44274V4.34103Z" fill="#211F30"/>
<path d="M13.7181 6.7555H12.9174V8.95729H9.96504V0.200163H14.181C14.99 0.200163 15.6947 0.333605 16.2952 0.600488C16.8957 0.867372 17.3586 1.25102 17.6838 1.75143C18.0091 2.25183 18.1717 2.83564 18.1717 3.50285C18.1717 4.12836 18.0299 4.67464 17.7464 5.14168C17.4628 5.60873 17.0541 5.97987 16.5204 6.25509L18.3594 8.95729H15.2068L13.7181 6.7555ZM15.1943 3.50285C15.1943 3.17759 15.0942 2.92738 14.8941 2.75224C14.6939 2.56876 14.3936 2.47702 13.9933 2.47702H12.9174V4.52869H13.9933C14.3936 4.52869 14.6939 4.44111 14.8941 4.26597C15.0942 4.08249 15.1943 3.82812 15.1943 3.50285Z" fill="#211F30"/>
<path d="M27.7435 0.200163V8.95729H24.8786V8.01903C24.2865 8.77798 23.4775 9.15745 22.4517 9.15745C21.4258 9.15745 20.6294 8.81968 20.0622 8.14413C19.4951 7.46858 19.2115 6.50946 19.2115 5.26679V0.200163H22.1639V5.17922C22.1639 5.71298 22.2765 6.11331 22.5017 6.38019C22.7269 6.63874 23.0396 6.76801 23.44 6.76801C23.832 6.76801 24.1531 6.62623 24.4033 6.34266C24.6618 6.05076 24.7911 5.62958 24.7911 5.07913V0.200163H27.7435Z" fill="#211F30"/>
<path d="M33.3861 0.200163C34.195 0.200163 34.8998 0.333605 35.5003 0.600488C36.1008 0.867372 36.5636 1.25102 36.8889 1.75143C37.2142 2.25183 37.3768 2.83564 37.3768 3.50285C37.3768 4.17006 37.2142 4.75387 36.8889 5.25428C36.5636 5.75468 36.1008 6.13833 35.5003 6.40521C34.8998 6.6721 34.195 6.80554 33.3861 6.80554H32.1225V8.95729H29.1701V0.200163H33.3861ZM33.1984 4.52869C33.5987 4.52869 33.899 4.44111 34.0991 4.26597C34.2993 4.08249 34.3994 3.82812 34.3994 3.50285C34.3994 3.17759 34.2993 2.92738 34.0991 2.75224C33.899 2.56876 33.5987 2.47702 33.1984 2.47702H32.1225V4.52869H33.1984Z" fill="#211F30"/>
<path d="M43.0585 9.15745C42.116 9.15745 41.2695 8.96146 40.5189 8.56947C39.7683 8.17749 39.1803 7.63538 38.755 6.94315C38.3296 6.24258 38.117 5.45444 38.117 4.57873C38.117 3.70301 38.3296 2.91904 38.755 2.22681C39.1803 1.52624 39.7683 0.979964 40.5189 0.587978C41.2695 0.195993 42.116 0 43.0585 0C44.0009 0 44.8474 0.195993 45.598 0.587978C46.3487 0.979964 46.9366 1.52624 47.362 2.22681C47.7873 2.91904 48 3.70301 48 4.57873C48 5.45444 47.7873 6.24258 47.362 6.94315C46.9366 7.63538 46.3487 8.17749 45.598 8.56947C44.8474 8.96146 44.0009 9.15745 43.0585 9.15745ZM43.0585 6.76801C43.4254 6.76801 43.7549 6.68044 44.0468 6.50529C44.347 6.32181 44.5847 6.06744 44.7599 5.74217C44.935 5.40857 45.0226 5.02075 45.0226 4.57873C45.0226 4.1367 44.935 3.75305 44.7599 3.42779C44.5847 3.09418 44.347 2.83981 44.0468 2.66467C43.7549 2.48119 43.4254 2.38944 43.0585 2.38944C42.6915 2.38944 42.3579 2.48119 42.0577 2.66467C41.7658 2.83981 41.5322 3.09418 41.3571 3.42779C41.1819 3.75305 41.0944 4.1367 41.0944 4.57873C41.0944 5.02075 41.1819 5.40857 41.3571 5.74217C41.5322 6.06744 41.7658 6.32181 42.0577 6.50529C42.3579 6.68044 42.6915 6.76801 43.0585 6.76801Z" fill="#211F30"/>
<path d="M14.4709 11.2639C16.5348 11.2639 18.3558 11.6787 19.934 12.5083C21.5122 13.3176 22.7364 14.5114 23.6064 16.0896C24.4967 17.6476 24.9418 19.5091 24.9418 21.6741V32.9949H17.7791V28.7155H11.0413V32.9949H4V21.6741C4 19.5091 4.43502 17.6476 5.30507 16.0896C6.19535 14.5114 7.42961 13.3176 9.00783 12.5083C10.5861 11.6787 12.4071 11.2639 14.4709 11.2639ZM17.7791 23.3131V21.0671C17.7791 19.7519 17.4655 18.7605 16.8383 18.0928C16.2313 17.4048 15.4219 17.0609 14.4102 17.0609C13.3985 17.0609 12.5791 17.4048 11.9518 18.0928C11.3448 18.7605 11.0413 19.7519 11.0413 21.0671V23.3131H17.7791Z" fill="#7C6FCD"/>
<path d="M28.2195 11.7495H35.3822V27.4407H44.9729V32.9949H28.2195V11.7495Z" fill="#7C6FCD"/>
</svg>
