<svg width="256" height="106" viewBox="0 0 256 106" fill="none" xmlns="http://www.w3.org/2000/svg">
<path d="M26.6033 47.1819H8.69421V0.636429H26.4215C31.2094 0.636429 35.3457 1.56825 38.8306 3.43188C42.3306 5.28037 45.0275 7.94703 46.9215 11.4319C48.8306 14.9016 49.7851 19.0607 49.7851 23.9092C49.7851 28.7576 48.8382 32.9243 46.9442 36.4092C45.0503 39.8789 42.3685 42.5455 38.8988 44.4092C35.4291 46.2576 31.3306 47.1819 26.6033 47.1819ZM21.3306 36.4546H26.1488C28.4518 36.4546 30.4139 36.0834 32.0351 35.341C33.6715 34.5986 34.9139 33.3182 35.7624 31.5001C36.626 29.6819 37.0579 27.1516 37.0579 23.9092C37.0579 20.6667 36.6185 18.1364 35.7397 16.3182C34.876 14.5001 33.6033 13.2198 31.9215 12.4773C30.2548 11.7349 28.2094 11.3637 25.7851 11.3637H21.3306V36.4546ZM64.7851 47.1819H51.1488L66.5124 0.636429H83.7851L99.1488 47.1819H85.5124L75.3306 13.4546H74.9669L64.7851 47.1819ZM62.2397 28.8182H87.876V38.2728H62.2397V28.8182ZM110.012 47.1819L96.2851 0.636429H110.376L116.74 29.2728H117.103L124.649 0.636429H135.74L143.285 29.3637H143.649L150.012 0.636429H164.103L150.376 47.1819H138.285L130.376 21.1819H130.012L122.103 47.1819H110.012Z" fill="#7C6FCD"/>
<path d="M168.285 47.1819V38.091L185.649 23.7273C186.8 22.7728 187.785 21.8789 188.603 21.0455C189.437 20.197 190.073 19.3258 190.512 18.4319C190.967 17.5379 191.194 16.5455 191.194 15.4546C191.194 14.2576 190.937 13.2349 190.421 12.3864C189.921 11.5379 189.225 10.8864 188.331 10.4319C187.437 9.96219 186.406 9.72734 185.24 9.72734C184.073 9.72734 183.043 9.96219 182.149 10.4319C181.27 10.9016 180.588 11.591 180.103 12.5001C179.618 13.4092 179.376 14.5152 179.376 15.8182H167.376C167.376 12.5455 168.111 9.72734 169.581 7.3637C171.05 5.00007 173.126 3.18188 175.808 1.90916C178.49 0.636429 181.634 6.48499e-05 185.24 6.48499e-05C188.967 6.48499e-05 192.194 0.59855 194.921 1.79552C197.664 2.97734 199.778 4.64401 201.262 6.79552C202.762 8.94704 203.512 11.4698 203.512 14.3637C203.512 16.1516 203.141 17.9319 202.399 19.7046C201.656 21.4622 200.323 23.4092 198.399 25.5455C196.475 27.6819 193.74 30.2273 190.194 33.1819L185.831 36.8182V37.091H204.012V47.1819H168.285ZM229.115 47.8182C226.403 47.8182 223.827 47.394 221.387 46.5455C218.963 45.6819 216.812 44.3258 214.933 42.4773C213.054 40.6289 211.577 38.2198 210.501 35.2501C209.44 32.2804 208.918 28.6819 208.933 24.4546C208.948 20.6819 209.433 17.2879 210.387 14.2728C211.357 11.2576 212.728 8.68946 214.501 6.56825C216.289 4.44704 218.425 2.82582 220.91 1.70461C223.395 0.568246 226.16 6.48499e-05 229.206 6.48499e-05C232.63 6.48499e-05 235.645 0.659156 238.251 1.97734C240.857 3.29552 242.933 5.06067 244.478 7.27279C246.039 9.46976 246.948 11.894 247.206 14.5455H234.751C234.463 13.2273 233.796 12.2652 232.751 11.6592C231.721 11.0379 230.539 10.7273 229.206 10.7273C226.554 10.7273 224.607 11.8789 223.365 14.1819C222.137 16.4849 221.509 19.5152 221.478 23.2728H221.751C222.342 21.8486 223.236 20.6289 224.433 19.6137C225.63 18.5986 227.024 17.8182 228.615 17.2728C230.206 16.7273 231.887 16.4546 233.66 16.4546C236.478 16.4546 238.94 17.091 241.046 18.3637C243.168 19.6364 244.819 21.3789 246.001 23.591C247.183 25.8031 247.766 28.3334 247.751 31.1819C247.766 34.5152 246.978 37.4319 245.387 39.9319C243.812 42.4319 241.622 44.3713 238.819 45.7501C236.016 47.1289 232.781 47.8182 229.115 47.8182ZM229.024 38.2728C230.281 38.2728 231.395 37.9849 232.365 37.4092C233.35 36.8334 234.115 36.0455 234.66 35.0455C235.221 34.0455 235.493 32.9092 235.478 31.6364C235.493 30.3486 235.221 29.2122 234.66 28.2273C234.115 27.2273 233.35 26.4395 232.365 25.8637C231.395 25.2879 230.281 25.0001 229.024 25.0001C228.1 25.0001 227.243 25.1667 226.456 25.5001C225.683 25.8182 225.009 26.2804 224.433 26.8864C223.857 27.4773 223.403 28.1819 223.069 29.0001C222.751 29.8031 222.584 30.6819 222.569 31.6364C222.584 32.9092 222.872 34.0455 223.433 35.0455C223.993 36.0455 224.759 36.8334 225.728 37.4092C226.698 37.9849 227.796 38.2728 229.024 38.2728ZM10.1164 63.5256C10.0369 62.7813 9.70167 62.2018 9.11076 61.787C8.52554 61.3722 7.76417 61.1648 6.82667 61.1648C6.16758 61.1648 5.60224 61.2643 5.13065 61.4631C4.65906 61.662 4.29826 61.9319 4.04826 62.2728C3.79826 62.6137 3.67042 63.0029 3.66474 63.4404C3.66474 63.804 3.74713 64.1194 3.9119 64.3864C4.08235 64.6535 4.31247 64.8807 4.60224 65.0682C4.89201 65.2501 5.21304 65.4035 5.56531 65.5285C5.91758 65.6535 6.27269 65.7586 6.63065 65.8438L8.26701 66.2529C8.9261 66.4063 9.55963 66.6137 10.1676 66.8751C10.7812 67.1364 11.3295 67.466 11.8125 67.8637C12.3011 68.2614 12.6875 68.7415 12.9716 69.304C13.2556 69.8665 13.3977 70.5256 13.3977 71.2813C13.3977 72.304 13.1363 73.2046 12.6136 73.983C12.0909 74.7557 11.3352 75.3609 10.3466 75.7984C9.3636 76.2302 8.17326 76.4461 6.77554 76.4461C5.41758 76.4461 4.2386 76.2359 3.2386 75.8154C2.24428 75.395 1.46588 74.7813 0.903376 73.9745C0.346558 73.1677 0.0454213 72.1847 -3.32594e-05 71.0256H3.11076C3.15622 71.6336 3.34372 72.1393 3.67326 72.5427C4.00281 72.9461 4.43179 73.2472 4.96019 73.4461C5.49429 73.645 6.09088 73.7444 6.74997 73.7444C7.43747 73.7444 8.03974 73.6421 8.55679 73.4376C9.07951 73.2273 9.4886 72.9376 9.78406 72.5682C10.0795 72.1932 10.2301 71.7557 10.2358 71.2557C10.2301 70.8012 10.0966 70.4262 9.83519 70.1307C9.57383 69.8296 9.20735 69.5796 8.73576 69.3807C8.26985 69.1762 7.7244 68.9944 7.0994 68.8353L5.1136 68.3239C3.6761 67.9546 2.53974 67.395 1.70451 66.645C0.874967 65.8893 0.460194 64.8864 0.460194 63.6364C0.460194 62.608 0.738603 61.7075 1.29542 60.9347C1.85792 60.162 2.62213 59.5626 3.58803 59.1364C4.55394 58.7046 5.64769 58.4887 6.86929 58.4887C8.10792 58.4887 9.19315 58.7046 10.125 59.1364C11.0625 59.5626 11.7983 60.1563 12.3324 60.9177C12.8664 61.6734 13.142 62.5427 13.1591 63.5256H10.1164ZM19.3785 58.7273V76.1819H16.2166V58.7273H19.3785ZM32.2883 63.5256C32.2088 62.7813 31.8735 62.2018 31.2826 61.787C30.6974 61.3722 29.936 61.1648 28.9985 61.1648C28.3395 61.1648 27.7741 61.2643 27.3025 61.4631C26.8309 61.662 26.4701 61.9319 26.2201 62.2728C25.9701 62.6137 25.8423 63.0029 25.8366 63.4404C25.8366 63.804 25.919 64.1194 26.0838 64.3864C26.2542 64.6535 26.4843 64.8807 26.7741 65.0682C27.0639 65.2501 27.3849 65.4035 27.7372 65.5285C28.0895 65.6535 28.4446 65.7586 28.8025 65.8438L30.4389 66.2529C31.098 66.4063 31.7315 66.6137 32.3395 66.8751C32.9531 67.1364 33.5014 67.466 33.9843 67.8637C34.473 68.2614 34.8593 68.7415 35.1434 69.304C35.4275 69.8665 35.5696 70.5256 35.5696 71.2813C35.5696 72.304 35.3082 73.2046 34.7855 73.983C34.2628 74.7557 33.5071 75.3609 32.5184 75.7984C31.5355 76.2302 30.3451 76.4461 28.9474 76.4461C27.5895 76.4461 26.4105 76.2359 25.4105 75.8154C24.4162 75.395 23.6378 74.7813 23.0753 73.9745C22.5184 73.1677 22.2173 72.1847 22.1718 71.0256H25.2826C25.3281 71.6336 25.5156 72.1393 25.8451 72.5427C26.1747 72.9461 26.6037 73.2472 27.1321 73.4461C27.6662 73.645 28.2628 73.7444 28.9218 73.7444C29.6093 73.7444 30.2116 73.6421 30.7287 73.4376C31.2514 73.2273 31.6605 72.9376 31.9559 72.5682C32.2514 72.1932 32.402 71.7557 32.4076 71.2557C32.402 70.8012 32.2684 70.4262 32.0071 70.1307C31.7457 69.8296 31.3792 69.5796 30.9076 69.3807C30.4417 69.1762 29.8963 68.9944 29.2713 68.8353L27.2855 68.3239C25.848 67.9546 24.7116 67.395 23.8764 66.645C23.0468 65.8893 22.6321 64.8864 22.6321 63.6364C22.6321 62.608 22.9105 61.7075 23.4673 60.9347C24.0298 60.162 24.794 59.5626 25.7599 59.1364C26.7258 58.7046 27.8196 58.4887 29.0412 58.4887C30.2798 58.4887 31.365 58.7046 32.2968 59.1364C33.2343 59.5626 33.9701 60.1563 34.5042 60.9177C35.0383 61.6734 35.3139 62.5427 35.3309 63.5256H32.2883ZM37.6214 61.3779V58.7273H51.5476V61.3779H46.1527V76.1819H43.0163V61.3779H37.6214ZM54.2322 76.1819V58.7273H65.5845V61.3779H57.3941V66.1165H64.9964V68.7671H57.3941V73.5313H65.6527V76.1819H54.2322ZM68.8103 58.7273H72.6797L77.8615 71.3751H78.066L83.2478 58.7273H87.1172V76.1819H84.0831V64.1904H83.9211L79.0973 76.1307H76.8302L72.0064 64.1648H71.8444V76.1819H68.8103V58.7273ZM92.8018 76.1819H89.4268L95.5717 58.7273H99.4751L105.629 76.1819H102.254L97.5916 62.3069H97.4552L92.8018 76.1819ZM92.9126 69.3381H102.117V71.8779H92.9126V69.3381ZM119.795 76.1819H113.881V58.7273H119.915C121.648 58.7273 123.136 59.0768 124.381 59.7756C125.631 60.4688 126.591 61.466 127.261 62.7671C127.932 64.0682 128.267 65.6251 128.267 67.4376C128.267 69.2557 127.929 70.8182 127.253 72.1251C126.582 73.4319 125.614 74.4347 124.347 75.1336C123.085 75.8325 121.568 76.1819 119.795 76.1819ZM117.043 73.4461H119.642C120.858 73.4461 121.872 73.2245 122.685 72.7813C123.497 72.3325 124.108 71.6648 124.517 70.7785C124.926 69.8864 125.131 68.7728 125.131 67.4376C125.131 66.1023 124.926 64.9944 124.517 64.1137C124.108 63.2273 123.503 62.5654 122.702 62.1279C121.906 61.6847 120.918 61.4631 119.736 61.4631H117.043V73.4461ZM131.271 76.1819V58.7273H142.624V61.3779H134.433V66.1165H142.035V68.7671H134.433V73.5313H142.692V76.1819H131.271ZM163.496 64.3012C163.354 63.841 163.158 63.429 162.908 63.0654C162.663 62.6961 162.368 62.3807 162.021 62.1194C161.68 61.858 161.288 61.662 160.845 61.5313C160.402 61.395 159.919 61.3268 159.396 61.3268C158.459 61.3268 157.624 61.5626 156.891 62.0342C156.158 62.5057 155.581 63.1989 155.16 64.1137C154.746 65.0228 154.538 66.1307 154.538 67.4376C154.538 68.7557 154.746 69.8722 155.16 70.787C155.575 71.7018 156.152 72.3978 156.891 72.8751C157.629 73.3467 158.487 73.5825 159.464 73.5825C160.351 73.5825 161.118 73.412 161.766 73.0711C162.419 72.7302 162.922 72.2472 163.274 71.6222C163.626 70.9915 163.803 70.2529 163.803 69.4063L164.518 69.5171H159.78V67.0455H166.862V69.1421C166.862 70.6364 166.544 71.929 165.908 73.02C165.271 74.1109 164.396 74.9518 163.283 75.5427C162.169 76.1279 160.891 76.4205 159.447 76.4205C157.839 76.4205 156.428 76.0597 155.212 75.3381C154.001 74.6109 153.055 73.5796 152.374 72.2444C151.697 70.9035 151.359 69.3126 151.359 67.4717C151.359 66.0626 151.558 64.804 151.956 63.6961C152.359 62.5881 152.922 61.6478 153.643 60.8751C154.365 60.0967 155.212 59.5057 156.183 59.1023C157.155 58.6932 158.212 58.4887 159.354 58.4887C160.32 58.4887 161.22 58.6307 162.055 58.9148C162.891 59.1932 163.632 59.591 164.28 60.108C164.933 60.6251 165.47 61.2387 165.891 61.9489C166.311 62.6592 166.587 63.4432 166.717 64.3012H163.496ZM169.92 76.1819V58.7273H181.272V61.3779H173.082V66.1165H180.684V68.7671H173.082V73.5313H181.34V76.1819H169.92ZM193.984 63.5256C193.904 62.7813 193.569 62.2018 192.978 61.787C192.393 61.3722 191.631 61.1648 190.694 61.1648C190.035 61.1648 189.469 61.2643 188.998 61.4631C188.526 61.662 188.165 61.9319 187.915 62.2728C187.665 62.6137 187.538 63.0029 187.532 63.4404C187.532 63.804 187.614 64.1194 187.779 64.3864C187.95 64.6535 188.18 64.8807 188.469 65.0682C188.759 65.2501 189.08 65.4035 189.432 65.5285C189.785 65.6535 190.14 65.7586 190.498 65.8438L192.134 66.2529C192.793 66.4063 193.427 66.6137 194.035 66.8751C194.648 67.1364 195.197 67.466 195.68 67.8637C196.168 68.2614 196.555 68.7415 196.839 69.304C197.123 69.8665 197.265 70.5256 197.265 71.2813C197.265 72.304 197.004 73.2046 196.481 73.983C195.958 74.7557 195.202 75.3609 194.214 75.7984C193.231 76.2302 192.04 76.4461 190.643 76.4461C189.285 76.4461 188.106 76.2359 187.106 75.8154C186.111 75.395 185.333 74.7813 184.771 73.9745C184.214 73.1677 183.913 72.1847 183.867 71.0256H186.978C187.023 71.6336 187.211 72.1393 187.54 72.5427C187.87 72.9461 188.299 73.2472 188.827 73.4461C189.361 73.645 189.958 73.7444 190.617 73.7444C191.305 73.7444 191.907 73.6421 192.424 73.4376C192.947 73.2273 193.356 72.9376 193.651 72.5682C193.947 72.1932 194.097 71.7557 194.103 71.2557C194.097 70.8012 193.964 70.4262 193.702 70.1307C193.441 69.8296 193.075 69.5796 192.603 69.3807C192.137 69.1762 191.592 68.9944 190.967 68.8353L188.981 68.3239C187.543 67.9546 186.407 67.395 185.572 66.645C184.742 65.8893 184.327 64.8864 184.327 63.6364C184.327 62.608 184.606 61.7075 185.163 60.9347C185.725 60.162 186.489 59.5626 187.455 59.1364C188.421 58.7046 189.515 58.4887 190.736 58.4887C191.975 58.4887 193.06 58.7046 193.992 59.1364C194.93 59.5626 195.665 60.1563 196.2 60.9177C196.734 61.6734 197.009 62.5427 197.026 63.5256H193.984ZM199.317 61.3779V58.7273H213.243V61.3779H207.848V76.1819H204.712V61.3779H199.317ZM219.089 58.7273V76.1819H215.928V58.7273H219.089ZM238.11 67.4546C238.11 69.3353 237.758 70.9461 237.053 72.287C236.354 73.6222 235.4 74.645 234.19 75.3552C232.985 76.0654 231.619 76.4205 230.09 76.4205C228.562 76.4205 227.192 76.0654 225.982 75.3552C224.778 74.6393 223.823 73.6137 223.119 72.2785C222.42 70.9376 222.07 69.3296 222.07 67.4546C222.07 65.5739 222.42 63.966 223.119 62.6307C223.823 61.2898 224.778 60.2643 225.982 59.554C227.192 58.8438 228.562 58.4887 230.09 58.4887C231.619 58.4887 232.985 58.8438 234.19 59.554C235.4 60.2643 236.354 61.2898 237.053 62.6307C237.758 63.966 238.11 65.5739 238.11 67.4546ZM234.931 67.4546C234.931 66.1307 234.724 65.0143 234.309 64.1052C233.9 63.1904 233.332 62.5001 232.604 62.0342C231.877 61.5626 231.039 61.3268 230.09 61.3268C229.141 61.3268 228.303 61.5626 227.576 62.0342C226.849 62.5001 226.278 63.1904 225.863 64.1052C225.454 65.0143 225.249 66.1307 225.249 67.4546C225.249 68.7785 225.454 69.8978 225.863 70.8126C226.278 71.7217 226.849 72.412 227.576 72.8836C228.303 73.3495 229.141 73.5825 230.09 73.5825C231.039 73.5825 231.877 73.3495 232.604 72.8836C233.332 72.412 233.9 71.7217 234.309 70.8126C234.724 69.8978 234.931 68.7785 234.931 67.4546ZM228.906 57.0057L230.815 53.1109H233.832L231.215 57.0057H228.906ZM255.443 58.7273V76.1819H252.631L244.406 64.2927H244.261V76.1819H241.099V58.7273H243.929L252.145 70.6251H252.298V58.7273H255.443ZM43.1079 105.182H37.1931V87.7273H43.2272C44.9602 87.7273 46.4488 88.0768 47.6931 88.7756C48.9431 89.4688 49.9034 90.466 50.5738 91.7671C51.2443 93.0682 51.5795 94.6251 51.5795 96.4376C51.5795 98.2557 51.2414 99.8182 50.5653 101.125C49.8949 102.432 48.9261 103.435 47.6591 104.134C46.3977 104.832 44.8806 105.182 43.1079 105.182ZM40.3551 102.446H42.9545C44.1704 102.446 45.1846 102.224 45.9971 101.781C46.8096 101.332 47.4204 100.665 47.8295 99.7785C48.2386 98.8864 48.4431 97.7728 48.4431 96.4376C48.4431 95.1023 48.2386 93.9944 47.8295 93.1137C47.4204 92.2273 46.8153 91.5654 46.0142 91.1279C45.2187 90.6847 44.2301 90.4631 43.0483 90.4631H40.3551V102.446ZM54.5838 105.182V87.7273H65.936V90.3779H57.7457V95.1165H65.348V97.7671H57.7457V102.531H66.0042V105.182H54.5838ZM75.115 105.182V87.7273H81.6605C83.0014 87.7273 84.1264 87.9773 85.0355 88.4773C85.9503 88.9773 86.6406 89.6648 87.1065 90.5398C87.5781 91.4092 87.8139 92.3978 87.8139 93.5057C87.8139 94.6251 87.5781 95.6194 87.1065 96.4887C86.6349 97.358 85.9389 98.0427 85.0184 98.5427C84.098 99.037 82.9645 99.2842 81.6179 99.2842H77.2798V96.6847H81.1917C81.9758 96.6847 82.6179 96.5484 83.1179 96.2756C83.6179 96.0029 83.9872 95.6279 84.2258 95.1506C84.4701 94.6734 84.5923 94.1251 84.5923 93.5057C84.5923 92.8864 84.4701 92.341 84.2258 91.8694C83.9872 91.3978 83.615 91.0313 83.1093 90.77C82.6093 90.5029 81.9645 90.3694 81.1747 90.3694H78.277V105.182H75.115ZM90.5603 105.182V87.7273H97.1058C98.4467 87.7273 99.5717 87.9603 100.481 88.4262C101.396 88.8921 102.086 89.5455 102.552 90.3864C103.023 91.2217 103.259 92.1961 103.259 93.3097C103.259 94.429 103.021 95.4006 102.543 96.2245C102.072 97.0427 101.376 97.6762 100.455 98.1251C99.5348 98.5682 98.4041 98.7898 97.0632 98.7898H92.4012V96.1648H96.637C97.4211 96.1648 98.0632 96.0569 98.5632 95.841C99.0632 95.6194 99.4325 95.2984 99.6711 94.8779C99.9155 94.4518 100.038 93.929 100.038 93.3097C100.038 92.6904 99.9155 92.162 99.6711 91.7245C99.4268 91.2813 99.0547 90.9461 98.5547 90.7188C98.0547 90.4859 97.4098 90.3694 96.62 90.3694H93.7223V105.182H90.5603ZM99.5774 97.2728L103.898 105.182H100.37L96.1257 97.2728H99.5774ZM121.766 96.4546C121.766 98.3353 121.414 99.9461 120.709 101.287C120.011 102.622 119.056 103.645 117.846 104.355C116.641 105.065 115.275 105.421 113.746 105.421C112.218 105.421 110.849 105.065 109.638 104.355C108.434 103.639 107.479 102.614 106.775 101.278C106.076 99.9376 105.727 98.3296 105.727 96.4546C105.727 94.5739 106.076 92.966 106.775 91.6307C107.479 90.2898 108.434 89.2643 109.638 88.554C110.849 87.8438 112.218 87.4887 113.746 87.4887C115.275 87.4887 116.641 87.8438 117.846 88.554C119.056 89.2643 120.011 90.2898 120.709 91.6307C121.414 92.966 121.766 94.5739 121.766 96.4546ZM118.587 96.4546C118.587 95.1307 118.38 94.0143 117.965 93.1052C117.556 92.1904 116.988 91.5001 116.261 91.0342C115.533 90.5626 114.695 90.3268 113.746 90.3268C112.798 90.3268 111.959 90.5626 111.232 91.0342C110.505 91.5001 109.934 92.1904 109.519 93.1052C109.11 94.0143 108.906 95.1307 108.906 96.4546C108.906 97.7785 109.11 98.8978 109.519 99.8126C109.934 100.722 110.505 101.412 111.232 101.884C111.959 102.349 112.798 102.582 113.746 102.582C114.695 102.582 115.533 102.349 116.261 101.884C116.988 101.412 117.556 100.722 117.965 99.8126C118.38 98.8978 118.587 97.7785 118.587 96.4546ZM122.578 87.7273H126.149L130.419 95.4489H130.589L134.859 87.7273H138.43L132.081 98.6705V105.182H128.928V98.6705L122.578 87.7273ZM140.67 105.182V87.7273H152.022V90.3779H143.832V95.1165H151.434V97.7671H143.832V102.531H152.09V105.182H140.67ZM170.188 93.6165H167.001C166.91 93.0938 166.742 92.6307 166.498 92.2273C166.254 91.8182 165.95 91.4717 165.586 91.1876C165.222 90.9035 164.807 90.6904 164.342 90.5484C163.881 90.4006 163.384 90.3268 162.85 90.3268C161.901 90.3268 161.06 90.5654 160.327 91.0427C159.594 91.5143 159.021 92.2075 158.606 93.1222C158.191 94.0313 157.984 95.1421 157.984 96.4546C157.984 97.7898 158.191 98.9148 158.606 99.8296C159.026 100.739 159.6 101.426 160.327 101.892C161.06 102.352 161.898 102.582 162.842 102.582C163.364 102.582 163.853 102.514 164.307 102.378C164.768 102.236 165.18 102.028 165.543 101.756C165.913 101.483 166.222 101.148 166.472 100.75C166.728 100.352 166.904 99.8978 167.001 99.3864L170.188 99.4035C170.069 100.233 169.81 101.011 169.413 101.739C169.021 102.466 168.506 103.108 167.87 103.665C167.234 104.216 166.489 104.648 165.637 104.96C164.785 105.267 163.839 105.421 162.799 105.421C161.265 105.421 159.896 105.065 158.691 104.355C157.486 103.645 156.538 102.619 155.844 101.278C155.151 99.9376 154.805 98.3296 154.805 96.4546C154.805 94.5739 155.154 92.966 155.853 91.6307C156.552 90.2898 157.504 89.2643 158.708 88.554C159.913 87.8438 161.276 87.4887 162.799 87.4887C163.771 87.4887 164.674 87.6251 165.509 87.8978C166.344 88.1705 167.089 88.5711 167.742 89.0995C168.396 89.6222 168.932 90.2643 169.353 91.0256C169.779 91.7813 170.057 92.645 170.188 93.6165ZM172.317 90.3779V87.7273H186.243V90.3779H180.848V105.182H177.712V90.3779H172.317ZM203.751 96.4546C203.751 98.3353 203.398 99.9461 202.694 101.287C201.995 102.622 201.04 103.645 199.83 104.355C198.626 105.065 197.259 105.421 195.731 105.421C194.202 105.421 192.833 105.065 191.623 104.355C190.418 103.639 189.464 102.614 188.759 101.278C188.06 99.9376 187.711 98.3296 187.711 96.4546C187.711 94.5739 188.06 92.966 188.759 91.6307C189.464 90.2898 190.418 89.2643 191.623 88.554C192.833 87.8438 194.202 87.4887 195.731 87.4887C197.259 87.4887 198.626 87.8438 199.83 88.554C201.04 89.2643 201.995 90.2898 202.694 91.6307C203.398 92.966 203.751 94.5739 203.751 96.4546ZM200.572 96.4546C200.572 95.1307 200.364 94.0143 199.95 93.1052C199.54 92.1904 198.972 91.5001 198.245 91.0342C197.518 90.5626 196.68 90.3268 195.731 90.3268C194.782 90.3268 193.944 90.5626 193.217 91.0342C192.489 91.5001 191.918 92.1904 191.504 93.1052C191.094 94.0143 190.89 95.1307 190.89 96.4546C190.89 97.7785 191.094 98.8978 191.504 99.8126C191.918 100.722 192.489 101.412 193.217 101.884C193.944 102.349 194.782 102.582 195.731 102.582C196.68 102.582 197.518 102.349 198.245 101.884C198.972 101.412 199.54 100.722 199.95 99.8126C200.364 98.8978 200.572 97.7785 200.572 96.4546ZM216.226 92.5256C216.146 91.7813 215.811 91.2018 215.22 90.787C214.635 90.3722 213.874 90.1648 212.936 90.1648C212.277 90.1648 211.712 90.2643 211.24 90.4631C210.768 90.662 210.408 90.9319 210.158 91.2728C209.908 91.6137 209.78 92.0029 209.774 92.4404C209.774 92.804 209.857 93.1194 210.021 93.3864C210.192 93.6535 210.422 93.8807 210.712 94.0682C211.001 94.2501 211.322 94.4035 211.675 94.5285C212.027 94.6535 212.382 94.7586 212.74 94.8438L214.376 95.2529C215.035 95.4063 215.669 95.6137 216.277 95.8751C216.891 96.1364 217.439 96.466 217.922 96.8637C218.41 97.2614 218.797 97.7415 219.081 98.304C219.365 98.8665 219.507 99.5256 219.507 100.281C219.507 101.304 219.246 102.205 218.723 102.983C218.2 103.756 217.445 104.361 216.456 104.798C215.473 105.23 214.283 105.446 212.885 105.446C211.527 105.446 210.348 105.236 209.348 104.815C208.354 104.395 207.575 103.781 207.013 102.974C206.456 102.168 206.155 101.185 206.109 100.026H209.22C209.266 100.634 209.453 101.139 209.783 101.543C210.112 101.946 210.541 102.247 211.07 102.446C211.604 102.645 212.2 102.744 212.859 102.744C213.547 102.744 214.149 102.642 214.666 102.438C215.189 102.227 215.598 101.938 215.893 101.568C216.189 101.193 216.339 100.756 216.345 100.256C216.339 99.8012 216.206 99.4262 215.945 99.1307C215.683 98.8296 215.317 98.5796 214.845 98.3807C214.379 98.1762 213.834 97.9944 213.209 97.8353L211.223 97.3239C209.785 96.9546 208.649 96.395 207.814 95.645C206.984 94.8893 206.57 93.8864 206.57 92.6364C206.57 91.608 206.848 90.7075 207.405 89.9347C207.967 89.162 208.732 88.5626 209.697 88.1364C210.663 87.7046 211.757 87.4887 212.979 87.4887C214.217 87.4887 215.303 87.7046 216.234 88.1364C217.172 88.5626 217.908 89.1563 218.442 89.9177C218.976 90.6734 219.251 91.5427 219.268 92.5256H216.226Z" fill="black"/>
</svg>
