<svg width="256" height="80" viewBox="0 0 256 80" fill="none" xmlns="http://www.w3.org/2000/svg">
<path d="M43.0071 57.5466C42.0228 57.5466 41.0688 57.4068 40.1452 57.1273C39.2338 56.8478 38.5108 56.4772 37.9761 56.0154L38.7963 54.1743C39.3189 54.5875 39.9569 54.9278 40.7103 55.1951C41.4759 55.4503 42.2415 55.5779 43.0071 55.5779C43.955 55.5779 44.6598 55.426 45.1216 55.1222C45.5955 54.8184 45.8325 54.4174 45.8325 53.9191C45.8325 53.5546 45.6988 53.2568 45.4315 53.0259C45.1763 52.7829 44.8482 52.5945 44.4471 52.4609C44.0461 52.3272 43.4993 52.1753 42.8066 52.0051C41.8344 51.7742 41.0445 51.5434 40.4369 51.3125C39.8414 51.0816 39.325 50.7231 38.8875 50.237C38.4622 49.7388 38.2495 49.0704 38.2495 48.2319C38.2495 47.527 38.4379 46.8891 38.8146 46.3179C39.2034 45.7346 39.7807 45.2728 40.5463 44.9325C41.324 44.5923 42.2719 44.4221 43.3899 44.4221C44.1676 44.4221 44.9332 44.5194 45.6867 44.7138C46.4401 44.9082 47.0902 45.1877 47.6371 45.5523L46.8897 47.3934C46.3307 47.0653 45.7474 46.8161 45.1398 46.646C44.5322 46.4759 43.9428 46.3908 43.3717 46.3908C42.4359 46.3908 41.7372 46.5488 41.2754 46.8647C40.8258 47.1807 40.601 47.6 40.601 48.1225C40.601 48.4871 40.7286 48.7848 40.9838 49.0157C41.2511 49.2466 41.5853 49.4289 41.9863 49.5625C42.3873 49.6962 42.9342 49.8481 43.6269 50.0183C44.5747 50.237 45.3525 50.4679 45.9601 50.7109C46.5677 50.9418 47.0842 51.3003 47.5095 51.7864C47.947 52.2725 48.1657 52.9287 48.1657 53.7551C48.1657 54.4599 47.9713 55.0979 47.5824 55.669C47.2057 56.2402 46.6285 56.6959 45.8507 57.0362C45.073 57.3764 44.1251 57.5466 43.0071 57.5466Z" fill="black"/>
<path d="M50.2967 47.6303H52.5753V57.3643H50.2967V47.6303ZM51.4451 46.0262C51.0319 46.0262 50.6856 45.8986 50.4061 45.6434C50.1266 45.3761 49.9868 45.048 49.9868 44.6591C49.9868 44.2702 50.1266 43.9482 50.4061 43.693C50.6856 43.4257 51.0319 43.292 51.4451 43.292C51.8583 43.292 52.2046 43.4196 52.4841 43.6748C52.7636 43.9178 52.9034 44.2277 52.9034 44.6044C52.9034 45.0055 52.7636 45.3457 52.4841 45.6252C52.2168 45.8926 51.8704 46.0262 51.4451 46.0262Z" fill="black"/>
<path d="M58.5735 57.4919C57.7836 57.4919 57.012 57.3886 56.2585 57.182C55.5051 56.9754 54.9036 56.7141 54.4539 56.3982L55.3289 54.6665C55.7664 54.9581 56.2889 55.1951 56.8965 55.3774C57.5163 55.5475 58.1239 55.6326 58.7194 55.6326C60.0804 55.6326 60.7609 55.2741 60.7609 54.5571C60.7609 54.2168 60.5847 53.9799 60.2323 53.8462C59.8921 53.7125 59.3391 53.5849 58.5735 53.4634C57.7715 53.3419 57.1153 53.2021 56.6049 53.0442C56.1066 52.8862 55.6691 52.6128 55.2924 52.2239C54.9279 51.8229 54.7456 51.2699 54.7456 50.5651C54.7456 49.6415 55.1284 48.9063 55.894 48.3595C56.6717 47.8005 57.7168 47.521 59.0292 47.521C59.6976 47.521 60.366 47.6 61.0344 47.7579C61.7027 47.9038 62.2496 48.1043 62.6749 48.3595L61.7999 50.0912C60.9736 49.6051 60.044 49.362 59.011 49.362C58.3426 49.362 57.8322 49.4653 57.4798 49.6719C57.1396 49.8663 56.9694 50.1276 56.9694 50.4557C56.9694 50.8203 57.1517 51.0816 57.5163 51.2396C57.893 51.3854 58.4702 51.5251 59.248 51.6588C60.0257 51.7803 60.6637 51.9201 61.162 52.0781C61.6602 52.236 62.0855 52.5034 62.4379 52.8801C62.8025 53.2568 62.9848 53.7915 62.9848 54.4842C62.9848 55.3956 62.5898 56.1247 61.7999 56.6716C61.0101 57.2184 59.9346 57.4919 58.5735 57.4919Z" fill="black"/>
<path d="M70.4156 56.8356C70.1482 57.0544 69.8201 57.2184 69.4312 57.3278C69.0545 57.4372 68.6535 57.4919 68.2281 57.4919C67.1587 57.4919 66.3324 57.2124 65.7491 56.6534C65.1658 56.0944 64.8741 55.2802 64.8741 54.2108V45.4794H67.1527V47.7033H69.7593V49.5261H67.1527V54.1561C67.1527 54.63 67.2681 54.9946 67.499 55.2498C67.7421 55.4928 68.0762 55.6144 68.5016 55.6144C69.012 55.6144 69.4373 55.4807 69.7776 55.2133L70.4156 56.8356Z" fill="black"/>
<path d="M76.6085 55.5597C77.6657 55.5597 78.5468 55.2073 79.2516 54.5024L80.4547 55.906C80.0293 56.4286 79.4825 56.8235 78.8141 57.0909C78.1457 57.3582 77.3923 57.4919 76.5538 57.4919C75.4844 57.4919 74.5426 57.2792 73.7284 56.8539C72.9142 56.4286 72.2823 55.8392 71.8327 55.0857C71.3952 54.3201 71.1764 53.4573 71.1764 52.4973C71.1764 51.5494 71.3891 50.6988 71.8144 49.9453C72.2519 49.1797 72.8474 48.5843 73.6008 48.159C74.3664 47.7336 75.2292 47.521 76.1892 47.521C77.1006 47.521 77.927 47.7215 78.6683 48.1225C79.4217 48.5114 80.0172 49.0765 80.4547 49.8177C80.8921 50.5469 81.1109 51.4036 81.1109 52.3879L73.6555 53.8462C73.8864 54.4052 74.257 54.8305 74.7674 55.1222C75.2778 55.4138 75.8915 55.5597 76.6085 55.5597ZM76.1892 49.3438C75.3507 49.3438 74.6702 49.6172 74.1477 50.1641C73.6373 50.7109 73.3821 51.4461 73.3821 52.3697V52.3879L78.887 51.3307C78.729 50.7352 78.407 50.2552 77.9209 49.8907C77.447 49.5261 76.8698 49.3438 76.1892 49.3438Z" fill="black"/>
<path d="M95.5859 47.521C96.8133 47.521 97.7855 47.8795 98.5024 48.5964C99.2194 49.3013 99.5779 50.3646 99.5779 51.7864V57.3643H97.2994V52.0781C97.2994 51.2274 97.111 50.5894 96.7343 50.1641C96.3576 49.7266 95.8168 49.5079 95.112 49.5079C94.3464 49.5079 93.7327 49.7631 93.2709 50.2734C92.8091 50.7717 92.5782 51.4887 92.5782 52.4244V57.3643H90.2997V52.0781C90.2997 51.2274 90.1113 50.5894 89.7346 50.1641C89.3579 49.7266 88.8171 49.5079 88.1123 49.5079C87.3345 49.5079 86.7148 49.757 86.253 50.2552C85.8034 50.7535 85.5785 51.4765 85.5785 52.4244V57.3643H83.3V47.6303H85.4692V48.8699C85.8337 48.4324 86.2894 48.0982 86.8363 47.8673C87.3831 47.6364 87.9908 47.521 88.6591 47.521C89.3883 47.521 90.0323 47.6607 90.5913 47.9402C91.1625 48.2076 91.6121 48.6086 91.9402 49.1433C92.3413 48.6329 92.8577 48.238 93.4896 47.9584C94.1216 47.6668 94.8203 47.521 95.5859 47.521Z" fill="black"/>
<path d="M112.094 47.6303V57.3643H109.925V56.1065C109.548 56.5683 109.08 56.9146 108.521 57.1455C107.974 57.3764 107.367 57.4919 106.698 57.4919C105.75 57.4919 104.9 57.2853 104.146 56.8721C103.405 56.4589 102.822 55.8756 102.396 55.1222C101.983 54.3687 101.777 53.4938 101.777 52.4973C101.777 51.5008 101.983 50.6319 102.396 49.8907C102.822 49.1372 103.405 48.5539 104.146 48.1407C104.9 47.7276 105.75 47.521 106.698 47.521C107.33 47.521 107.907 47.6303 108.43 47.8491C108.965 48.0678 109.426 48.3899 109.815 48.8152V47.6303H112.094ZM106.953 55.5414C107.792 55.5414 108.485 55.2619 109.031 54.7029C109.578 54.1439 109.852 53.4087 109.852 52.4973C109.852 51.5859 109.578 50.8507 109.031 50.2917C108.485 49.7327 107.792 49.4532 106.953 49.4532C106.115 49.4532 105.422 49.7327 104.875 50.2917C104.341 50.8507 104.073 51.5859 104.073 52.4973C104.073 53.4087 104.341 54.1439 104.875 54.7029C105.422 55.2619 106.115 55.5414 106.953 55.5414Z" fill="black"/>
<path d="M129.646 43.8388V57.3643H127.459V56.1065C127.082 56.5683 126.614 56.9146 126.055 57.1455C125.508 57.3764 124.901 57.4919 124.232 57.4919C123.297 57.4919 122.452 57.2853 121.699 56.8721C120.957 56.4589 120.374 55.8756 119.949 55.1222C119.523 54.3566 119.311 53.4816 119.311 52.4973C119.311 51.513 119.523 50.6441 119.949 49.8907C120.374 49.1372 120.957 48.5539 121.699 48.1407C122.452 47.7276 123.297 47.521 124.232 47.521C124.876 47.521 125.466 47.6303 126 47.8491C126.535 48.0678 126.991 48.3959 127.368 48.8334V43.8388H129.646ZM124.506 55.5414C125.053 55.5414 125.545 55.4199 125.982 55.1769C126.42 54.9217 126.766 54.5632 127.021 54.1014C127.276 53.6396 127.404 53.1049 127.404 52.4973C127.404 51.8897 127.276 51.355 127.021 50.8932C126.766 50.4314 126.42 50.079 125.982 49.836C125.545 49.5808 125.053 49.4532 124.506 49.4532C123.959 49.4532 123.467 49.5808 123.029 49.836C122.592 50.079 122.245 50.4314 121.99 50.8932C121.735 51.355 121.607 51.8897 121.607 52.4973C121.607 53.1049 121.735 53.6396 121.99 54.1014C122.245 54.5632 122.592 54.9217 123.029 55.1769C123.467 55.4199 123.959 55.5414 124.506 55.5414Z" fill="black"/>
<path d="M137.257 55.5597C138.314 55.5597 139.195 55.2073 139.9 54.5024L141.103 55.906C140.678 56.4286 140.131 56.8235 139.463 57.0909C138.794 57.3582 138.041 57.4919 137.202 57.4919C136.133 57.4919 135.191 57.2792 134.377 56.8539C133.563 56.4286 132.931 55.8392 132.481 55.0857C132.044 54.3201 131.825 53.4573 131.825 52.4973C131.825 51.5494 132.038 50.6988 132.463 49.9453C132.9 49.1797 133.496 48.5843 134.249 48.159C135.015 47.7336 135.878 47.521 136.838 47.521C137.749 47.521 138.575 47.7215 139.317 48.1225C140.07 48.5114 140.666 49.0765 141.103 49.8177C141.541 50.5469 141.759 51.4036 141.759 52.3879L134.304 53.8462C134.535 54.4052 134.905 54.8305 135.416 55.1222C135.926 55.4138 136.54 55.5597 137.257 55.5597ZM136.838 49.3438C135.999 49.3438 135.319 49.6172 134.796 50.1641C134.286 50.7109 134.03 51.4461 134.03 52.3697V52.3879L139.535 51.3307C139.377 50.7352 139.055 50.2552 138.569 49.8907C138.095 49.5261 137.518 49.3438 136.838 49.3438Z" fill="black"/>
<path d="M157.918 50.8385H160.16V57.3643H158.21V56.6169C157.298 57.2367 156.156 57.5466 154.783 57.5466C153.604 57.5466 152.522 57.2914 151.538 56.781C150.554 56.2706 149.764 55.5293 149.168 54.5571C148.585 53.5849 148.293 52.4244 148.293 51.0755C148.293 49.7995 148.591 48.6572 149.187 47.6486C149.782 46.6278 150.602 45.8379 151.647 45.2789C152.705 44.7077 153.89 44.4221 155.202 44.4221C156.271 44.4221 157.244 44.5984 158.119 44.9508C158.993 45.3032 159.729 45.8197 160.324 46.5002L158.829 47.9584C157.857 46.9863 156.685 46.5002 155.311 46.5002C154.412 46.5002 153.61 46.6946 152.905 47.0835C152.213 47.4602 151.666 47.9949 151.265 48.6876C150.876 49.3803 150.681 50.1702 150.681 51.0573C150.681 51.993 150.876 52.8011 151.265 53.4816C151.666 54.15 152.194 54.6604 152.851 55.0128C153.507 55.3531 154.224 55.5232 155.001 55.5232C155.548 55.5232 156.071 55.4381 156.569 55.268C157.08 55.0979 157.529 54.8488 157.918 54.5207V50.8385Z" fill="black"/>
<path d="M167.697 55.5597C168.754 55.5597 169.635 55.2073 170.34 54.5024L171.543 55.906C171.118 56.4286 170.571 56.8235 169.902 57.0909C169.234 57.3582 168.481 57.4919 167.642 57.4919C166.573 57.4919 165.631 57.2792 164.817 56.8539C164.003 56.4286 163.371 55.8392 162.921 55.0857C162.483 54.3201 162.265 53.4573 162.265 52.4973C162.265 51.5494 162.477 50.6988 162.903 49.9453C163.34 49.1797 163.936 48.5843 164.689 48.159C165.455 47.7336 166.318 47.521 167.278 47.521C168.189 47.521 169.015 47.7215 169.757 48.1225C170.51 48.5114 171.105 49.0765 171.543 49.8177C171.98 50.5469 172.199 51.4036 172.199 52.3879L164.744 53.8462C164.975 54.4052 165.345 54.8305 165.856 55.1222C166.366 55.4138 166.98 55.5597 167.697 55.5597ZM167.278 49.3438C166.439 49.3438 165.759 49.6172 165.236 50.1641C164.726 50.7109 164.47 51.4461 164.47 52.3697V52.3879L169.975 51.3307C169.817 50.7352 169.495 50.2552 169.009 49.8907C168.535 49.5261 167.958 49.3438 167.278 49.3438Z" fill="black"/>
<path d="M177.396 57.4919C176.606 57.4919 175.834 57.3886 175.081 57.182C174.328 56.9754 173.726 56.7141 173.276 56.3982L174.151 54.6665C174.589 54.9581 175.111 55.1951 175.719 55.3774C176.339 55.5475 176.946 55.6326 177.542 55.6326C178.903 55.6326 179.583 55.2741 179.583 54.5571C179.583 54.2168 179.407 53.9799 179.055 53.8462C178.715 53.7125 178.162 53.5849 177.396 53.4634C176.594 53.3419 175.938 53.2021 175.427 53.0442C174.929 52.8862 174.492 52.6128 174.115 52.2239C173.75 51.8229 173.568 51.2699 173.568 50.5651C173.568 49.6415 173.951 48.9063 174.716 48.3595C175.494 47.8005 176.539 47.521 177.852 47.521C178.52 47.521 179.188 47.6 179.857 47.7579C180.525 47.9038 181.072 48.1043 181.497 48.3595L180.622 50.0912C179.796 49.6051 178.866 49.362 177.833 49.362C177.165 49.362 176.655 49.4653 176.302 49.6719C175.962 49.8663 175.792 50.1276 175.792 50.4557C175.792 50.8203 175.974 51.0816 176.339 51.2396C176.715 51.3854 177.293 51.5251 178.07 51.6588C178.848 51.7803 179.486 51.9201 179.984 52.0781C180.483 52.236 180.908 52.5034 181.26 52.8801C181.625 53.2568 181.807 53.7915 181.807 54.4842C181.807 55.3956 181.412 56.1247 180.622 56.6716C179.833 57.2184 178.757 57.4919 177.396 57.4919Z" fill="black"/>
<path d="M189.238 56.8356C188.971 57.0544 188.643 57.2184 188.254 57.3278C187.877 57.4372 187.476 57.4919 187.051 57.4919C185.981 57.4919 185.155 57.2124 184.572 56.6534C183.988 56.0944 183.697 55.2802 183.697 54.2108V45.4794H185.975V47.7033H188.582V49.5261H185.975V54.1561C185.975 54.63 186.091 54.9946 186.321 55.2498C186.565 55.4928 186.899 55.6144 187.324 55.6144C187.834 55.6144 188.26 55.4807 188.6 55.2133L189.238 56.8356Z" fill="black"/>
<path d="M191.121 47.6303H193.4V57.3643H191.121V47.6303ZM192.27 46.0262C191.857 46.0262 191.51 45.8986 191.231 45.6434C190.951 45.3761 190.811 45.048 190.811 44.6591C190.811 44.2702 190.951 43.9482 191.231 43.693C191.51 43.4257 191.857 43.292 192.27 43.292C192.683 43.292 193.029 43.4196 193.309 43.6748C193.588 43.9178 193.728 44.2277 193.728 44.6044C193.728 45.0055 193.588 45.3457 193.309 45.6252C193.041 45.8926 192.695 46.0262 192.27 46.0262Z" fill="black"/>
<path d="M200.765 57.4919C199.781 57.4919 198.894 57.2792 198.104 56.8539C197.314 56.4286 196.694 55.8392 196.245 55.0857C195.807 54.3201 195.588 53.4573 195.588 52.4973C195.588 51.5373 195.807 50.6805 196.245 49.9271C196.694 49.1737 197.314 48.5843 198.104 48.159C198.894 47.7336 199.781 47.521 200.765 47.521C201.762 47.521 202.655 47.7336 203.445 48.159C204.235 48.5843 204.848 49.1737 205.286 49.9271C205.736 50.6805 205.96 51.5373 205.96 52.4973C205.96 53.4573 205.736 54.3201 205.286 55.0857C204.848 55.8392 204.235 56.4286 203.445 56.8539C202.655 57.2792 201.762 57.4919 200.765 57.4919ZM200.765 55.5414C201.604 55.5414 202.296 55.2619 202.843 54.7029C203.39 54.1439 203.664 53.4087 203.664 52.4973C203.664 51.5859 203.39 50.8507 202.843 50.2917C202.296 49.7327 201.604 49.4532 200.765 49.4532C199.927 49.4532 199.234 49.7327 198.687 50.2917C198.153 50.8507 197.885 51.5859 197.885 52.4973C197.885 53.4087 198.153 54.1439 198.687 54.7029C199.234 55.2619 199.927 55.5414 200.765 55.5414ZM201.677 43.8024H204.356L201.185 46.2997H199.216L201.677 43.8024Z" fill="black"/>
<path d="M213.662 47.521C214.89 47.521 215.874 47.8795 216.615 48.5964C217.357 49.3134 217.727 50.3767 217.727 51.7864V57.3643H215.449V52.0781C215.449 51.2274 215.248 50.5894 214.847 50.1641C214.446 49.7266 213.875 49.5079 213.134 49.5079C212.295 49.5079 211.633 49.7631 211.147 50.2734C210.661 50.7717 210.418 51.4947 210.418 52.4426V57.3643H208.139V47.6303H210.308V48.8881C210.685 48.4385 211.159 48.0982 211.73 47.8673C212.301 47.6364 212.945 47.521 213.662 47.521Z" fill="black"/>
<path d="M77.5334 62.0672V75.5926H75.346V74.3349C74.9692 74.7966 74.5014 75.143 73.9424 75.3739C73.3955 75.6048 72.7879 75.7202 72.1195 75.7202C71.1838 75.7202 70.3392 75.5136 69.5858 75.1005C68.8445 74.6873 68.2612 74.104 67.8359 73.3505C67.4106 72.5849 67.1979 71.71 67.1979 70.7256C67.1979 69.7413 67.4106 68.8724 67.8359 68.119C68.2612 67.3656 68.8445 66.7823 69.5858 66.3691C70.3392 65.9559 71.1838 65.7493 72.1195 65.7493C72.7636 65.7493 73.353 65.8587 73.8877 66.0774C74.4224 66.2962 74.8781 66.6243 75.2548 67.0618V62.0672H77.5334ZM72.393 73.7698C72.9398 73.7698 73.432 73.6483 73.8695 73.4052C74.3069 73.15 74.6533 72.7915 74.9085 72.3297C75.1637 71.868 75.2913 71.3333 75.2913 70.7256C75.2913 70.118 75.1637 69.5833 74.9085 69.1216C74.6533 68.6598 74.3069 68.3074 73.8695 68.0643C73.432 67.8091 72.9398 67.6815 72.393 67.6815C71.8461 67.6815 71.354 67.8091 70.9165 68.0643C70.479 68.3074 70.1327 68.6598 69.8775 69.1216C69.6223 69.5833 69.4947 70.118 69.4947 70.7256C69.4947 71.3333 69.6223 71.868 69.8775 72.3297C70.1327 72.7915 70.479 73.15 70.9165 73.4052C71.354 73.6483 71.8461 73.7698 72.393 73.7698Z" fill="black"/>
<path d="M85.1441 73.788C86.2014 73.788 87.0824 73.4356 87.7872 72.7308L88.9903 74.1343C88.565 74.6569 88.0181 75.0518 87.3497 75.3192C86.6814 75.5865 85.9279 75.7202 85.0894 75.7202C84.02 75.7202 83.0782 75.5076 82.264 75.0822C81.4498 74.6569 80.8179 74.0675 80.3683 73.3141C79.9308 72.5485 79.7121 71.6857 79.7121 70.7256C79.7121 69.7778 79.9247 68.9271 80.3501 68.1737C80.7875 67.4081 81.383 66.8126 82.1364 66.3873C82.902 65.962 83.7648 65.7493 84.7249 65.7493C85.6363 65.7493 86.4626 65.9498 87.2039 66.3508C87.9574 66.7397 88.5528 67.3048 88.9903 68.0461C89.4278 68.7752 89.6465 69.632 89.6465 70.6163L82.1911 72.0745C82.422 72.6335 82.7927 73.0589 83.3031 73.3505C83.8134 73.6422 84.4271 73.788 85.1441 73.788ZM84.7249 67.5721C83.8864 67.5721 83.2058 67.8456 82.6833 68.3924C82.1729 68.9393 81.9177 69.6745 81.9177 70.5981V70.6163L87.4227 69.559C87.2647 68.9636 86.9426 68.4836 86.4566 68.119C85.9826 67.7544 85.4054 67.5721 84.7249 67.5721Z" fill="black"/>
<path d="M102.342 62.8328C103.448 62.8328 104.408 63.0151 105.222 63.3796C106.048 63.7442 106.68 64.2667 107.118 64.9473C107.555 65.6278 107.774 66.4359 107.774 67.3716C107.774 68.2952 107.555 69.1033 107.118 69.796C106.68 70.4765 106.048 70.9991 105.222 71.3636C104.408 71.7282 103.448 71.9105 102.342 71.9105H99.4618V75.5926H97.0921V62.8328H102.342ZM102.232 69.9054C103.265 69.9054 104.049 69.6866 104.584 69.2492C105.119 68.8117 105.386 68.1858 105.386 67.3716C105.386 66.5574 105.119 65.9316 104.584 65.4941C104.049 65.0566 103.265 64.8379 102.232 64.8379H99.4618V69.9054H102.232Z" fill="black"/>
<path d="M112.002 67.2805C112.658 66.2597 113.812 65.7493 115.465 65.7493V67.9185C115.271 67.882 115.094 67.8638 114.936 67.8638C114.049 67.8638 113.357 68.1251 112.858 68.6476C112.36 69.158 112.111 69.8993 112.111 70.8715V75.5926H109.833V65.8587H112.002V67.2805Z" fill="black"/>
<path d="M121.684 75.7202C120.699 75.7202 119.812 75.5076 119.022 75.0822C118.233 74.6569 117.613 74.0675 117.163 73.3141C116.726 72.5485 116.507 71.6857 116.507 70.7256C116.507 69.7656 116.726 68.9089 117.163 68.1555C117.613 67.402 118.233 66.8126 119.022 66.3873C119.812 65.962 120.699 65.7493 121.684 65.7493C122.68 65.7493 123.574 65.962 124.363 66.3873C125.153 66.8126 125.767 67.402 126.204 68.1555C126.654 68.9089 126.879 69.7656 126.879 70.7256C126.879 71.6857 126.654 72.5485 126.204 73.3141C125.767 74.0675 125.153 74.6569 124.363 75.0822C123.574 75.5076 122.68 75.7202 121.684 75.7202ZM121.684 73.7698C122.522 73.7698 123.215 73.4903 123.762 72.9313C124.309 72.3723 124.582 71.6371 124.582 70.7256C124.582 69.8142 124.309 69.079 123.762 68.52C123.215 67.961 122.522 67.6815 121.684 67.6815C120.845 67.6815 120.153 67.961 119.606 68.52C119.071 69.079 118.804 69.8142 118.804 70.7256C118.804 71.6371 119.071 72.3723 119.606 72.9313C120.153 73.4903 120.845 73.7698 121.684 73.7698Z" fill="black"/>
<path d="M138.482 65.8587V74.1161C138.482 77.5431 136.799 79.2565 133.433 79.2565C132.545 79.2565 131.695 79.135 130.881 78.8919C130.079 78.6611 129.416 78.3208 128.894 77.8712L129.915 76.1577C130.328 76.5101 130.832 76.7896 131.427 76.9962C132.023 77.2028 132.649 77.3061 133.305 77.3061C134.301 77.3061 135.031 77.063 135.492 76.5769C135.966 76.103 136.203 75.3678 136.203 74.3713V73.9156C135.839 74.3166 135.395 74.6265 134.873 74.8453C134.35 75.0518 133.785 75.1551 133.177 75.1551C131.877 75.1551 130.85 74.7966 130.097 74.0797C129.355 73.3627 128.985 72.2872 128.985 70.8532V65.8587H131.263V70.5616C131.263 71.4244 131.458 72.0745 131.847 72.512C132.248 72.9374 132.813 73.15 133.542 73.15C134.356 73.15 135 72.9009 135.474 72.4027C135.96 71.9044 136.203 71.1814 136.203 70.2335V65.8587H138.482Z" fill="black"/>
<path d="M146.095 73.788C147.152 73.788 148.033 73.4356 148.738 72.7308L149.941 74.1343C149.516 74.6569 148.969 75.0518 148.301 75.3192C147.632 75.5865 146.879 75.7202 146.04 75.7202C144.971 75.7202 144.029 75.5076 143.215 75.0822C142.401 74.6569 141.769 74.0675 141.319 73.3141C140.882 72.5485 140.663 71.6857 140.663 70.7256C140.663 69.7778 140.876 68.9271 141.301 68.1737C141.739 67.4081 142.334 66.8126 143.087 66.3873C143.853 65.962 144.716 65.7493 145.676 65.7493C146.587 65.7493 147.414 65.9498 148.155 66.3508C148.908 66.7397 149.504 67.3048 149.941 68.0461C150.379 68.7752 150.598 69.632 150.598 70.6163L143.142 72.0745C143.373 72.6335 143.744 73.0589 144.254 73.3505C144.764 73.6422 145.378 73.788 146.095 73.788ZM145.676 67.5721C144.837 67.5721 144.157 67.8456 143.634 68.3924C143.124 68.9393 142.869 69.6745 142.869 70.5981V70.6163L148.374 69.559C148.216 68.9636 147.894 68.4836 147.408 68.119C146.934 67.7544 146.356 67.5721 145.676 67.5721Z" fill="black"/>
<path d="M157.253 75.7202C156.244 75.7202 155.339 75.5076 154.537 75.0822C153.735 74.6569 153.109 74.0675 152.659 73.3141C152.209 72.5485 151.985 71.6857 151.985 70.7256C151.985 69.7656 152.209 68.9089 152.659 68.1555C153.109 67.402 153.728 66.8126 154.518 66.3873C155.32 65.962 156.232 65.7493 157.253 65.7493C158.213 65.7493 159.051 65.9437 159.768 66.3326C160.497 66.7215 161.044 67.2805 161.409 68.0096L159.659 69.0304C159.379 68.5808 159.027 68.2466 158.601 68.0279C158.188 67.797 157.733 67.6815 157.234 67.6815C156.384 67.6815 155.679 67.961 155.12 68.52C154.561 69.0669 154.281 69.8021 154.281 70.7256C154.281 71.6492 154.555 72.3905 155.102 72.9495C155.661 73.4964 156.372 73.7698 157.234 73.7698C157.733 73.7698 158.188 73.6604 158.601 73.4417C159.027 73.2108 159.379 72.8705 159.659 72.4209L161.409 73.4417C161.032 74.1708 160.479 74.7359 159.75 75.1369C159.033 75.5258 158.2 75.7202 157.253 75.7202Z" fill="black"/>
<path d="M168.758 75.064C168.49 75.2827 168.162 75.4468 167.773 75.5562C167.397 75.6655 166.996 75.7202 166.57 75.7202C165.501 75.7202 164.675 75.4407 164.091 74.8817C163.508 74.3227 163.216 73.5085 163.216 72.4391V63.7077H165.495V65.9316H168.102V67.7544H165.495V72.3844C165.495 72.8584 165.61 73.2229 165.841 73.4781C166.084 73.7212 166.419 73.8427 166.844 73.8427C167.354 73.8427 167.78 73.709 168.12 73.4417L168.758 75.064Z" fill="black"/>
<path d="M174.696 75.7202C173.711 75.7202 172.824 75.5076 172.034 75.0822C171.244 74.6569 170.625 74.0675 170.175 73.3141C169.737 72.5485 169.519 71.6857 169.519 70.7256C169.519 69.7656 169.737 68.9089 170.175 68.1555C170.625 67.402 171.244 66.8126 172.034 66.3873C172.824 65.962 173.711 65.7493 174.696 65.7493C175.692 65.7493 176.585 65.962 177.375 66.3873C178.165 66.8126 178.779 67.402 179.216 68.1555C179.666 68.9089 179.891 69.7656 179.891 70.7256C179.891 71.6857 179.666 72.5485 179.216 73.3141C178.779 74.0675 178.165 74.6569 177.375 75.0822C176.585 75.5076 175.692 75.7202 174.696 75.7202ZM174.696 73.7698C175.534 73.7698 176.227 73.4903 176.774 72.9313C177.32 72.3723 177.594 71.6371 177.594 70.7256C177.594 69.8142 177.32 69.079 176.774 68.52C176.227 67.961 175.534 67.6815 174.696 67.6815C173.857 67.6815 173.164 67.961 172.618 68.52C172.083 69.079 171.815 69.8142 171.815 70.7256C171.815 71.6371 172.083 72.3723 172.618 72.9313C173.164 73.4903 173.857 73.7698 174.696 73.7698Z" fill="black"/>
<path d="M185.077 75.7202C184.287 75.7202 183.516 75.6169 182.762 75.4103C182.009 75.2037 181.407 74.9425 180.958 74.6265L181.833 72.8948C182.27 73.1865 182.793 73.4234 183.4 73.6057C184.02 73.7759 184.628 73.8609 185.223 73.8609C186.584 73.8609 187.265 73.5024 187.265 72.7855C187.265 72.4452 187.088 72.2082 186.736 72.0745C186.396 71.9409 185.843 71.8133 185.077 71.6918C184.275 71.5702 183.619 71.4305 183.109 71.2725C182.61 71.1145 182.173 70.8411 181.796 70.4522C181.432 70.0512 181.249 69.4983 181.249 68.7934C181.249 67.8699 181.632 67.1347 182.398 66.5878C183.175 66.0288 184.22 65.7493 185.533 65.7493C186.201 65.7493 186.87 65.8283 187.538 65.9863C188.206 66.1321 188.753 66.3326 189.179 66.5878L188.304 68.3195C187.477 67.8334 186.548 67.5904 185.515 67.5904C184.846 67.5904 184.336 67.6937 183.983 67.9003C183.643 68.0947 183.473 68.356 183.473 68.6841C183.473 69.0486 183.655 69.3099 184.02 69.4679C184.397 69.6137 184.974 69.7535 185.752 69.8871C186.529 70.0087 187.167 70.1484 187.666 70.3064C188.164 70.4644 188.589 70.7317 188.942 71.1084C189.306 71.4852 189.488 72.0199 189.488 72.7125C189.488 73.624 189.093 74.3531 188.304 74.8999C187.514 75.4468 186.438 75.7202 185.077 75.7202Z" fill="black"/>
<path d="M23.867 16.8673H33.8318V34.804H26.346V32.7138C24.0776 34.6258 21.0315 35.5817 17.2076 35.5817C13.9994 35.5817 11.0828 34.9012 8.45795 33.5402C5.86548 32.1791 3.8077 30.2023 2.28462 27.6099C0.76154 24.985 0 21.8578 0 18.2283C0 14.6637 0.810149 11.5041 2.43045 8.74961C4.08315 5.96269 6.36777 3.8077 9.2843 2.28462C12.2008 0.76154 15.5224 0 19.2491 0C22.5869 0 25.5683 0.567103 28.1932 1.70131C30.8505 2.80311 33.0541 4.42341 34.804 6.5622L27.464 13.0272C25.3252 10.5319 22.7814 9.2843 19.8324 9.2843C17.2724 9.2843 15.247 10.062 13.7563 11.6175C12.2981 13.173 11.5689 15.3442 11.5689 18.1311C11.5689 20.918 12.2332 23.0082 13.5619 24.4017C14.9229 25.7951 16.6729 26.4919 18.8117 26.4919C20.7884 26.4919 22.4735 26.0058 23.867 25.0336V16.8673Z" fill="black"/>
<path d="M53.3023 26.2488H50.1914V34.804H38.7197V0.777741H55.1009C58.2442 0.777741 60.9825 1.29624 63.3158 2.33323C65.649 3.37022 67.4475 4.86089 68.7114 6.80525C69.9752 8.7496 70.6071 11.018 70.6071 13.6105C70.6071 16.0409 70.0562 18.1635 68.9544 19.9783C67.8526 21.793 66.2647 23.2351 64.1907 24.3045L71.3362 34.804H59.0868L53.3023 26.2488ZM59.0382 13.6105C59.0382 12.3467 58.6493 11.3745 57.8716 10.694C57.0938 9.98103 55.9272 9.62457 54.3717 9.62457H50.1914V17.5964H54.3717C55.9272 17.5964 57.0938 17.2562 57.8716 16.5756C58.6493 15.8627 59.0382 14.8743 59.0382 13.6105Z" fill="black"/>
<path d="M107.799 0.777741V34.804H96.6672V31.1583C94.3664 34.1073 91.223 35.5817 87.2371 35.5817C83.2511 35.5817 80.1564 34.2693 77.9528 31.6444C75.7492 29.0195 74.6473 25.2928 74.6473 20.4644V0.777741H86.1191V20.1241C86.1191 22.1981 86.5565 23.7536 87.4315 24.7905C88.3065 25.7951 89.5217 26.2974 91.0772 26.2974C92.6002 26.2974 93.8479 25.7465 94.82 24.6447C95.8246 23.5105 96.3269 21.874 96.3269 19.7352V0.777741H107.799Z" fill="black"/>
<path d="M129.723 0.777741C132.867 0.777741 135.605 1.29624 137.938 2.33323C140.271 3.37022 142.07 4.86089 143.334 6.80525C144.597 8.7496 145.229 11.018 145.229 13.6105C145.229 16.203 144.597 18.4714 143.334 20.4157C142.07 22.3601 140.271 23.8508 137.938 24.8878C135.605 25.9248 132.867 26.4433 129.723 26.4433H124.814V34.804H113.342V0.777741H129.723ZM128.994 17.5964C130.549 17.5964 131.716 17.2562 132.494 16.5756C133.272 15.8627 133.66 14.8743 133.66 13.6105C133.66 12.3467 133.272 11.3745 132.494 10.694C131.716 9.98103 130.549 9.62457 128.994 9.62457H124.814V17.5964H128.994Z" fill="black"/>
<path d="M167.306 35.5817C163.644 35.5817 160.355 34.8202 157.438 33.2971C154.522 31.774 152.237 29.6676 150.584 26.9779C148.932 24.2559 148.105 21.1935 148.105 17.7909C148.105 14.3882 148.932 11.3421 150.584 8.65239C152.237 5.93029 154.522 3.8077 157.438 2.28462C160.355 0.76154 163.644 0 167.306 0C170.968 0 174.257 0.76154 177.173 2.28462C180.09 3.8077 182.375 5.93029 184.027 8.65239C185.68 11.3421 186.506 14.3882 186.506 17.7909C186.506 21.1935 185.68 24.2559 184.027 26.9779C182.375 29.6676 180.09 31.774 177.173 33.2971C174.257 34.8202 170.968 35.5817 167.306 35.5817ZM167.306 26.2974C168.732 26.2974 170.012 25.9572 171.146 25.2766C172.313 24.5637 173.236 23.5753 173.917 22.3115C174.597 21.0153 174.937 19.5084 174.937 17.7909C174.937 16.0733 174.597 14.5827 173.917 13.3188C173.236 12.0226 172.313 11.0342 171.146 10.3537C170.012 9.64077 168.732 9.2843 167.306 9.2843C165.88 9.2843 164.584 9.64077 163.417 10.3537C162.283 11.0342 161.376 12.0226 160.695 13.3188C160.014 14.5827 159.674 16.0733 159.674 17.7909C159.674 19.5084 160.014 21.0153 160.695 22.3115C161.376 23.5753 162.283 24.5637 163.417 25.2766C164.584 25.9572 165.88 26.2974 167.306 26.2974Z" fill="black"/>
<path d="M207.148 0C210.454 0 213.37 0.664322 215.898 1.99297C218.426 3.2892 220.386 5.20115 221.78 7.72882C223.206 10.2241 223.918 13.2054 223.918 16.6729V34.804H212.447V27.9501H201.656V34.804H190.378V16.6729C190.378 13.2054 191.075 10.2241 192.469 7.72882C193.894 5.20115 195.871 3.2892 198.399 1.99297C200.926 0.664322 203.843 0 207.148 0ZM212.447 19.2977V15.7007C212.447 13.5943 211.945 12.0064 210.94 10.937C209.968 9.8352 208.672 9.2843 207.051 9.2843C205.431 9.2843 204.118 9.8352 203.114 10.937C202.142 12.0064 201.656 13.5943 201.656 15.7007V19.2977H212.447Z" fill="#7C6FCD"/>
<path d="M229.168 0.777741H240.64V25.9086H256V34.804H229.168V0.777741Z" fill="#7C6FCD"/>
</svg>
